<svg width="100%" height="100%" viewBox="0 0 1920 168" xmlns="http://www.w3.org/2000/svg">
  <style>
      path,
      rect {
        fill: #333;
        mix-blend-mode: color-burn;
      }

      rect[width="1920"] {
        animation: 60s linear infinite hue;
        fill: url(#bg);
      }

      @keyframes hue {
        to {
          filter: hue-rotate(-360deg)
        }
      }

      @media (prefers-color-scheme: dark) {
        path,
        rect {
          fill: #bbb;
          mix-blend-mode: color-dodge;
        }

        stop[offset="0"] {
          stop-color: oklch(35% 0.14 303);
        }

        stop[offset="1"] {
          stop-color: oklch(40% 0.09 253);
        }
      }
    </style>
    <defs>
      <radialGradient id="bg" cx="0" cy="0" r="1" gradientUnits="userSpaceOnUse" gradientTransform="matrix(1920,168,-168,1920,0,0)">
        <stop offset="0" stop-color="oklch(90% 0.06 308)"/>
        <stop offset="1" stop-color="oklch(92% 0.04 250)"/>
      </radialGradient>
    </defs>
    <rect x="0" y="0" width="1920" height="168" fill="#fff"/>
    <path d="M45.2,121.815l-0,-70l16.909,-0l0,30.726l25.541,0l0,-30.726l16.909,-0l0,70l-16.909,-0l0,-24.202l-25.541,0l0,24.202l-16.909,-0Z"/>
    <path d="M122.846,61.648c-3.333,-0 -5.775,-0.672 -7.326,-2.014c-1.552,-1.343 -2.327,-3.409 -2.327,-6.197c-0,-2.816 0.772,-4.895 2.317,-6.238c1.545,-1.342 3.991,-2.014 7.338,-2.014c3.373,0 5.818,0.672 7.336,2.014c1.517,1.343 2.276,3.422 2.276,6.238c0,2.788 -0.752,4.854 -2.255,6.197c-1.504,1.342 -3.957,2.014 -7.359,2.014Zm-8.195,60.167l-0,-54.4l16.35,-0l-0,54.4l-16.35,-0Z"/>
    <path d="M139.777,113.096l14.928,-0.303c0.348,1.071 0.632,2.24 0.852,3.506c0.22,1.267 0.329,2.664 0.329,4.192c0,2.384 -0.321,4.737 -0.965,7.06c-0.644,2.323 -1.648,4.593 -3.011,6.81c-1.364,2.217 -3.094,4.404 -5.191,6.56l-12.292,-2.648c2.109,-2.645 3.65,-5.533 4.62,-8.665c0.971,-3.132 1.457,-6.158 1.457,-9.079c-0,-0.89 -0.046,-1.984 -0.138,-3.284c-0.092,-1.299 -0.288,-2.682 -0.589,-4.149Z"/>
    <rect x="190.267" y="51.815" width="16.909" height="70"/>
    <path d="M216.679,79.115l-0.683,-27.3l14.591,-0l-0.808,27.3l-13.1,-0Z"/>
    <path d="M238.494,121.815l-0,-54.4l14.811,-0l-0,4.708c2.011,-1.321 3.953,-2.389 5.826,-3.204c1.873,-0.815 3.727,-1.427 5.56,-1.834c1.834,-0.407 3.678,-0.611 5.531,-0.611c2.11,0 3.94,0.235 5.49,0.703c1.549,0.469 2.885,1.156 4.008,2.061c1.123,0.905 2.055,2.032 2.796,3.378c2.243,-1.4 4.345,-2.553 6.306,-3.461c1.96,-0.907 3.937,-1.59 5.929,-2.05c1.992,-0.46 4.07,-0.69 6.233,-0.69c1.987,-0 3.766,0.245 5.338,0.737c1.572,0.491 2.949,1.203 4.133,2.136c1.183,0.934 2.166,2.042 2.948,3.326c0.782,1.284 1.365,2.725 1.749,4.322c0.384,1.597 0.576,3.303 0.576,5.118l0,39.761l-16.392,-0l-0,-34.427c-0,-0.99 -0.106,-1.928 -0.319,-2.811c-0.212,-0.884 -0.542,-1.642 -0.988,-2.275c-0.446,-0.632 -1.051,-1.13 -1.813,-1.493c-0.763,-0.363 -1.712,-0.544 -2.847,-0.544c-0.976,-0 -1.949,0.125 -2.92,0.374c-0.97,0.25 -1.907,0.562 -2.811,0.938c-0.903,0.376 -1.78,0.799 -2.629,1.268c0.131,0.545 0.218,1.096 0.262,1.651c0.044,0.555 0.066,1.106 0.066,1.653l0,35.666l-16.392,-0l0,-34.378c0,-0.972 -0.109,-1.9 -0.327,-2.784c-0.218,-0.884 -0.555,-1.64 -1.011,-2.269c-0.456,-0.628 -1.072,-1.124 -1.848,-1.487c-0.777,-0.363 -1.725,-0.545 -2.845,-0.545c-0.893,0 -1.79,0.107 -2.692,0.321c-0.902,0.213 -1.788,0.499 -2.656,0.856c-0.869,0.357 -1.762,0.798 -2.68,1.322l-0,38.964l-16.392,-0Z"/>
    <path d="M352.317,121.815l-0,-70l17.58,-0l16.898,32.859l17.117,-32.859l16.741,-0l-0,70l-15.441,-0l0,-45.22l-14.937,28.72l-7.96,-0l-14.559,-28.4l-0,44.9l-15.439,-0Z"/>
    <path d="M438.937,61.648c-3.334,-0 -5.776,-0.672 -7.327,-2.014c-1.551,-1.343 -2.327,-3.409 -2.327,-6.197c0,-2.816 0.773,-4.895 2.318,-6.238c1.544,-1.342 3.99,-2.014 7.337,-2.014c3.373,0 5.818,0.672 7.336,2.014c1.518,1.343 2.277,3.422 2.277,6.238c-0,2.788 -0.752,4.854 -2.256,6.197c-1.503,1.342 -3.956,2.014 -7.358,2.014Zm-8.196,60.167l0,-54.4l16.35,-0l0,54.4l-16.35,-0Z"/>
    <path d="M501.639,122.755c-1.173,0 -2.334,-0.116 -3.48,-0.35c-1.146,-0.233 -2.356,-0.69 -3.63,-1.37c-1.273,-0.68 -2.73,-1.667 -4.369,-2.96c-1.64,-1.293 -3.54,-2.966 -5.7,-5.02l-12.578,-11.8l-0,20.56l-15.641,-0l0,-74l15.641,-0l-0,32.959l15.857,15.161c3.108,2.933 5.635,5.157 7.581,6.67c1.946,1.513 3.566,2.526 4.859,3.04c1.294,0.513 2.514,0.77 3.66,0.77c0.254,-0 1.327,-0.06 1.619,-0.06l0.121,16.06c-0.547,0.094 -1.134,0.174 -1.761,0.24c-0.626,0.067 -1.352,0.1 -2.179,0.1Zm-18.259,-24.56l-13.198,-6.241c2.399,-2.187 4.578,-4.3 6.538,-6.339c1.96,-2.04 3.693,-4.066 5.2,-6.08c1.507,-2.013 2.783,-4.087 3.83,-6.22c1.046,-2.133 1.843,-4.4 2.389,-6.8l16.64,0.94c-0.76,2.827 -1.903,5.646 -3.429,8.46c-1.527,2.813 -3.3,5.543 -5.32,8.19c-2.02,2.646 -4.126,5.153 -6.319,7.519c-2.194,2.367 -4.304,4.557 -6.331,6.571Z"/>
    <path d="M535.457,122.815c-4.239,-0 -8.006,-0.51 -11.299,-1.53c-3.293,-1.02 -6.08,-2.62 -8.359,-4.8c-2.28,-2.18 -4.017,-4.987 -5.211,-8.42c-1.193,-3.433 -1.79,-7.53 -1.79,-12.291c-0,-5.346 0.67,-9.895 2.01,-13.649c1.34,-3.754 3.24,-6.787 5.7,-9.1c2.46,-2.313 5.353,-3.993 8.68,-5.04c3.326,-1.047 6.963,-1.57 10.91,-1.57c7.985,-0 13.858,1.97 17.618,5.91c3.76,3.94 5.64,10.337 5.64,19.19c-0,0.639 -0.01,1.489 -0.03,2.55c-0.02,1.06 -0.077,2.063 -0.17,3.009c-1.667,0.134 -3.707,0.3 -6.12,0.5c-2.413,0.2 -5.083,0.4 -8.009,0.6c-2.927,0.2 -6.02,0.374 -9.28,0.521c-3.26,0.146 -6.603,0.267 -10.029,0.36c-0.039,0.187 -0.059,0.38 -0.059,0.58l-0,0.68c0.026,2.227 0.479,4.054 1.359,5.48c0.88,1.427 2.26,2.487 4.14,3.18c1.88,0.693 4.313,1.04 7.299,1.04c1.894,-0 3.867,-0.104 5.92,-0.31c2.054,-0.207 4.15,-0.494 6.29,-0.86c2.139,-0.367 4.256,-0.784 6.35,-1.25l1.939,11.82c-2.334,0.747 -4.737,1.377 -7.21,1.89c-2.473,0.513 -5.039,0.893 -7.699,1.14c-2.66,0.246 -5.523,0.37 -8.59,0.37Zm-9.639,-33.52c1.787,-0 3.533,-0.037 5.239,-0.11c1.706,-0.073 3.336,-0.146 4.89,-0.219c1.554,-0.074 2.93,-0.147 4.13,-0.221c1.199,-0.073 2.186,-0.13 2.96,-0.169c-0.067,-2.668 -0.394,-4.775 -0.981,-6.321c-0.587,-1.547 -1.45,-2.657 -2.589,-3.33c-1.14,-0.673 -2.59,-1.01 -4.35,-1.01c-1.146,-0 -2.226,0.167 -3.24,0.5c-1.013,0.333 -1.94,0.923 -2.779,1.77c-0.84,0.847 -1.543,2.007 -2.11,3.48c-0.566,1.473 -0.956,3.349 -1.17,5.63Z"/>
    <path d="M565.276,113.801c-0,-2.956 0.68,-5.143 2.04,-6.56c1.359,-1.418 3.655,-2.126 6.885,-2.126c3.261,-0 5.564,0.708 6.909,2.126c1.345,1.417 2.017,3.604 2.017,6.56c0,2.909 -0.672,5.072 -2.017,6.49c-1.345,1.417 -3.648,2.125 -6.909,2.125c-3.222,0 -5.515,-0.708 -6.879,-2.125c-1.364,-1.418 -2.046,-3.581 -2.046,-6.49Z"/>
    <path d="M1847.82,134l38.182,-43.712l-11.818,-13.561l-50,38.182l-0,19.091l23.636,0Z"/>
    <path d="M1862.36,134l23.636,0l0,-19.091l-23.636,19.091Z"/>
    <path d="M1862.36,34l-26.364,30.182l-26.364,-30.182l-23.636,0l0,100l23.636,0l0,-62.859l26.364,20.132l50,-38.182l0,-19.091l-23.636,0Z"/>
</svg>
